<svg width="266" height="89" viewBox="0 0 266 89" fill="none" xmlns="http://www.w3.org/2000/svg">
<g clip-path="url(#clip0_8_32)">
<mask id="path-1-outside-1_8_32" maskUnits="userSpaceOnUse" x="33" y="12" width="200" height="33" fill="black">
<rect fill="white" x="33" y="12" width="200" height="33"/>
<path d="M233 13C233 12.4477 232.552 12 232 12H34C33.4477 12 33 12.4477 33 13V42.8182C33 43.3705 33.4477 43.8182 34 43.8182H232C232.552 43.8182 233 43.3705 233 42.8182V13Z"/>
</mask>
<path d="M36.9927 37.869L35.2881 30.8418C35.2881 30.8418 43.802 27.706 55.5295 26.8359L55.5206 26.8168C55.8313 26.6638 87.1433 11.6249 118.784 12.0072C148.534 12.3896 172.939 27.0748 176.118 29.0732C178.427 28.7768 190.385 27.2949 204.937 29.5895C226.483 32.9835 241.043 49.7627 241.043 49.7627L237.279 68.2342C237.279 68.2342 233.16 73.4066 218.671 74.0757C215.209 77.8234 210.424 80.1373 205.142 80.1373C199.628 80.1373 194.666 77.5941 191.177 73.5691C174.717 73.2249 137.945 72.0107 121.538 70.7583C108.585 69.764 92.0199 71.4658 80.2654 73.1007C76.7497 77.403 71.6183 80.1374 65.9011 80.1374C60.0152 80.1374 54.7415 77.25 51.2349 72.7375L47.3731 72.2977L37.0749 65.1175L33.4083 42.7932L36.9927 37.869ZM238.377 51.4358C236.814 50.9004 232.659 49.4567 229.162 48.1181C231.408 50.4796 234.568 53.2139 237.8 54.2275L238.377 51.4358ZM205.138 77.6907C214.433 77.6907 221.997 69.545 221.997 59.5347C221.997 49.5247 214.433 41.3788 205.138 41.3788C195.843 41.3788 188.279 49.5245 188.279 59.5347C188.279 69.5447 195.843 77.6907 205.138 77.6907ZM65.8972 77.6907C75.1922 77.6907 82.7563 69.545 82.7563 59.5347C82.7563 49.5247 75.1924 41.3788 65.8972 41.3788C56.602 41.3788 49.0381 49.5245 49.0381 59.5347C49.0381 69.5447 56.5931 77.6907 65.8972 77.6907ZM39.1222 63.6459L48.1422 69.9273L49.4916 70.0803C47.7693 66.9922 46.7662 63.3877 46.7662 59.5347C46.7662 48.1766 55.351 38.9313 65.898 38.9313C76.4451 38.9313 85.0298 48.1668 85.0298 59.5347C85.0298 63.512 83.9556 67.2215 82.1357 70.3767C93.8189 68.8278 109.32 67.365 121.704 68.3115C137.462 69.5258 172.095 70.6922 189.308 71.0841C187.231 67.7951 186.015 63.8178 186.015 59.5444C186.015 48.1863 194.6 38.9409 205.147 38.9409C215.694 38.9409 224.278 48.1765 224.278 59.5444C224.278 63.9997 222.947 68.1204 220.701 71.4953C227.59 70.9503 232.482 69.4302 235.216 66.9443L237.311 56.6379C230.502 54.5728 224.394 46.1881 224.119 45.8151L221.065 41.5701L225.521 43.9698C227.217 44.8877 232.233 46.7233 235.81 47.9853C230.422 43.157 218.676 34.0839 204.613 32.0189C188.784 29.7052 175.617 31.6174 175.617 31.6174C175.617 31.6174 149.863 14.8668 118.747 14.4654C118.33 14.4654 117.921 14.4559 117.504 14.4559C95.1851 14.4559 73.2744 22.0663 62.8085 26.292C77.4037 25.5558 89.2744 29.4471 89.2744 29.4471C88.9903 29.4089 60.5539 25.986 38.0403 32.5447L39.4607 38.4149L35.8207 43.4439L39.1222 63.6459Z" fill="white"/>
<path d="M119.893 30.776C108.387 30.5944 88.0472 23.8255 87.1859 23.5291L83.5816 22.3244L87.2038 21.1867C97.502 17.9552 107.872 16.3107 118.027 16.3107C146.213 16.3107 163.436 28.6441 164.156 29.1699L167.299 31.4644L163.508 31.4071C163.499 31.4166 131.397 30.9577 119.893 30.776ZM118.028 18.7678C109.355 18.7678 100.512 19.9916 91.6965 22.4105C98.2395 24.4183 111.672 28.2044 119.937 28.3287C128.806 28.4626 149.917 28.7685 159.124 28.9024C152.616 25.3074 138.03 18.7678 118.028 18.7678Z" fill="white"/>
<path d="M183.015 42.5071C183.015 42.5071 176.375 48.626 173.418 54.9169C173.418 54.9169 174.777 47.7845 178.248 43.922C171.527 42.1151 106.577 37.4111 106.391 37.3442C106.4 37.3442 165.011 37.3442 183.015 42.5071Z" fill="white"/>
<path d="M205.138 43.6257C213.288 43.6257 219.911 50.7581 219.911 59.5348C219.911 68.3114 213.288 75.4439 205.138 75.4439C196.988 75.4439 190.365 68.3114 190.365 59.5348C190.365 50.7676 196.988 43.6257 205.138 43.6257ZM205.138 72.9963C212.027 72.9963 217.638 66.9538 217.638 59.5348C217.638 52.1157 212.027 46.0732 205.138 46.0732C198.249 46.0732 192.638 52.1157 192.638 59.5348C192.638 66.9636 198.249 72.9963 205.138 72.9963Z" fill="white"/>
<path d="M65.8973 43.6257C74.047 43.6257 80.67 50.7581 80.67 59.5348C80.67 68.3114 74.047 75.4439 65.8973 75.4439C57.7475 75.4439 51.1245 68.3114 51.1245 59.5348C51.1245 50.7676 57.7475 43.6257 65.8973 43.6257ZM65.8973 72.9963C72.7863 72.9963 78.3973 66.9538 78.3973 59.5348C78.3973 52.1157 72.7863 46.0732 65.8973 46.0732C59.0082 46.0732 53.3973 52.1157 53.3973 59.5348C53.3973 66.9636 58.9991 72.9963 65.8973 72.9963Z" fill="white"/>
</g>
<path d="M233 12H33H233ZM33 42.8182C33 43.9228 33.8954 44.8182 35 44.8182H231C232.105 44.8182 233 43.9228 233 42.8182C233 42.8182 232.552 42.8182 232 42.8182H34C33.4477 42.8182 33 42.8182 33 42.8182ZM233 43.8182V12V43.8182ZM33 12V43.8182V12Z" fill="white" mask="url(#path-1-outside-1_8_32)"/>
<path d="M21.92 73.9462C21.2587 73.9462 20.512 73.9142 19.68 73.8502C19.36 73.8288 18.9653 73.8075 18.496 73.7862C18.048 73.7648 17.536 73.7542 16.96 73.7542L14.72 73.7862C14.3147 73.8075 13.76 73.8182 13.056 73.8182C13.0133 73.8182 12.992 73.7542 12.992 73.6262C12.992 73.4982 13.0133 73.4342 13.056 73.4342C13.824 73.4342 14.3893 73.3808 14.752 73.2742C15.1147 73.1675 15.36 72.9648 15.488 72.6662C15.6373 72.3462 15.712 71.8662 15.712 71.2262V56.4102C15.712 55.7702 15.648 55.3008 15.52 55.0022C15.392 54.7035 15.1467 54.5008 14.784 54.3942C14.4427 54.2662 13.888 54.2022 13.12 54.2022C13.056 54.2022 13.024 54.1382 13.024 54.0102C13.024 53.8822 13.056 53.8182 13.12 53.8182L14.72 53.8502C15.6587 53.8928 16.4053 53.9142 16.96 53.9142C17.7493 53.9142 18.56 53.8822 19.392 53.8182C20.416 53.7755 21.1093 53.7542 21.472 53.7542C23.6693 53.7542 25.6213 54.1808 27.328 55.0342C29.0347 55.8875 30.3573 57.0502 31.296 58.5222C32.2347 59.9942 32.704 61.6475 32.704 63.4822C32.704 65.5515 32.2133 67.3862 31.232 68.9862C30.272 70.5648 28.96 71.7915 27.296 72.6662C25.6533 73.5195 23.8613 73.9462 21.92 73.9462ZM21.6 73.3702C23.2 73.3702 24.6187 73.0182 25.856 72.3142C27.0933 71.5888 28.0533 70.5435 28.736 69.1782C29.44 67.7915 29.792 66.1275 29.792 64.1862C29.792 62.3302 29.4613 60.6555 28.8 59.1622C28.1387 57.6475 27.2 56.4635 25.984 55.6102C24.7893 54.7355 23.392 54.2982 21.792 54.2982C20.8747 54.2982 20.1707 54.3515 19.68 54.4582C19.1893 54.5648 18.8267 54.7782 18.592 55.0982C18.3573 55.3968 18.24 55.8555 18.24 56.4742V70.8742C18.24 71.4928 18.3253 71.9835 18.496 72.3462C18.688 72.6875 19.0187 72.9435 19.488 73.1142C19.9787 73.2848 20.6827 73.3702 21.6 73.3702ZM35.8493 73.8182C35.7853 73.8182 35.7533 73.7542 35.7533 73.6262C35.7533 73.4982 35.7853 73.4342 35.8493 73.4342C36.6386 73.4342 37.1506 73.2955 37.3853 73.0182C37.6413 72.7195 37.7693 72.1222 37.7693 71.2262V65.3062C37.7693 64.5595 37.6946 64.0262 37.5453 63.7062C37.3959 63.3648 37.1293 63.1942 36.7453 63.1942C36.4039 63.1942 35.9453 63.3328 35.3693 63.6102H35.3372C35.2519 63.6102 35.1879 63.5568 35.1453 63.4502C35.1026 63.3222 35.1239 63.2475 35.2093 63.2262L39.5613 61.2102L39.6893 61.1782C39.7533 61.1782 39.8173 61.2102 39.8813 61.2742C39.9666 61.3382 40.0093 61.4128 40.0093 61.4982C40.0093 61.6475 39.9986 62.0742 39.9773 62.7782C39.9559 63.4822 39.9453 64.3142 39.9453 65.2742V71.2262C39.9453 72.1222 40.0626 72.7195 40.2973 73.0182C40.5533 73.2955 41.0759 73.4342 41.8653 73.4342C41.9293 73.4342 41.9613 73.4982 41.9613 73.6262C41.9613 73.7542 41.9293 73.8182 41.8653 73.8182C41.3533 73.8182 40.9373 73.8075 40.6173 73.7862L38.8573 73.7542L37.0973 73.7862C36.7773 73.8075 36.3613 73.8182 35.8493 73.8182ZM38.6653 57.5942C38.1746 57.5942 37.7799 57.4662 37.4813 57.2102C37.2039 56.9328 37.0653 56.5488 37.0653 56.0582C37.0653 55.5888 37.2039 55.2262 37.4813 54.9702C37.7799 54.7142 38.1746 54.5862 38.6653 54.5862C39.1346 54.5862 39.4973 54.7142 39.7533 54.9702C40.0306 55.2262 40.1693 55.5888 40.1693 56.0582C40.1693 56.5488 40.0413 56.9328 39.7853 57.2102C39.5293 57.4662 39.1559 57.5942 38.6653 57.5942ZM47.4823 64.7942C48.6343 63.4075 49.5303 62.4582 50.1703 61.9462C50.8316 61.4342 51.4289 61.1782 51.9623 61.1782C52.4529 61.1782 52.9116 61.3275 53.3383 61.6262C53.7649 61.9035 53.9783 62.2448 53.9783 62.6502C53.9783 62.9702 53.8716 63.2475 53.6583 63.4822C53.4449 63.6955 53.1569 63.8022 52.7943 63.8022C52.5596 63.8022 52.3676 63.7595 52.2183 63.6742C52.0689 63.5675 51.8769 63.4182 51.6423 63.2262C51.4289 63.0342 51.2476 62.8955 51.0983 62.8102C50.9703 62.7248 50.7889 62.6822 50.5543 62.6822C50.2556 62.6822 49.9143 62.8422 49.5303 63.1622C49.1676 63.4608 48.5489 64.1222 47.6743 65.1462L47.4823 64.7942ZM44.2823 73.8182C44.2183 73.8182 44.1863 73.7542 44.1863 73.6262C44.1863 73.4982 44.2183 73.4342 44.2823 73.4342C44.8156 73.4342 45.2103 73.3808 45.4663 73.2742C45.7436 73.1462 45.9249 72.9328 46.0103 72.6342C46.1169 72.3142 46.1703 71.8448 46.1703 71.2262V64.9862C46.1703 64.2822 46.0849 63.7808 45.9143 63.4822C45.7649 63.1622 45.4983 63.0022 45.1143 63.0022C44.7516 63.0022 44.1863 63.1515 43.4183 63.4502H43.3543C43.2903 63.4502 43.2369 63.3968 43.1943 63.2902C43.1729 63.1835 43.1943 63.1195 43.2583 63.0982L47.1943 61.2102L47.3863 61.1782C47.5996 61.1782 47.8129 61.4342 48.0263 61.9462C48.2609 62.4368 48.3783 63.0875 48.3783 63.8982V71.2262C48.3783 71.8448 48.4529 72.3142 48.6023 72.6342C48.7729 72.9328 49.0716 73.1462 49.4983 73.2742C49.9249 73.3808 50.5649 73.4342 51.4183 73.4342C51.4823 73.4342 51.5143 73.4982 51.5143 73.6262C51.5143 73.7542 51.4823 73.8182 51.4183 73.8182C50.7143 73.8182 50.1489 73.8075 49.7223 73.7862L47.2903 73.7542L45.4983 73.7862C45.1996 73.8075 44.7943 73.8182 44.2823 73.8182ZM61.5118 74.2022C60.2531 74.2022 59.1651 73.9248 58.2478 73.3702C57.3304 72.7942 56.6371 72.0368 56.1678 71.0982C55.6984 70.1382 55.4638 69.1142 55.4638 68.0262C55.4638 66.7675 55.7624 65.6155 56.3598 64.5702C56.9784 63.5248 57.8104 62.7035 58.8558 62.1062C59.9011 61.4875 61.0638 61.1782 62.3438 61.1782C63.6024 61.1782 64.5624 61.4982 65.2238 62.1382C65.8851 62.7568 66.2158 63.6528 66.2158 64.8262C66.2158 65.4235 66.0878 65.7222 65.8318 65.7222H63.6238C63.7091 64.4635 63.5384 63.5035 63.1118 62.8422C62.7064 62.1595 62.0878 61.8182 61.2558 61.8182C60.2104 61.8182 59.3891 62.2662 58.7918 63.1622C58.2158 64.0368 57.9278 65.2422 57.9278 66.7782C57.9278 68.6555 58.3544 70.1488 59.2078 71.2582C60.0824 72.3675 61.3198 72.9222 62.9198 72.9222C63.5384 72.9222 64.0718 72.8475 64.5198 72.6982C64.9678 72.5275 65.4904 72.2715 66.0878 71.9302H66.1198C66.1838 71.9302 66.2371 71.9728 66.2798 72.0582C66.3438 72.1222 66.3544 72.1862 66.3118 72.2502C65.5438 72.9328 64.7758 73.4342 64.0078 73.7542C63.2398 74.0528 62.4078 74.2022 61.5118 74.2022ZM57.1598 65.2742L64.3278 65.1462V65.7222L57.1918 65.7542L57.1598 65.2742ZM74.7365 74.2022C73.3498 74.2022 72.1765 73.9035 71.2165 73.3062C70.2778 72.6875 69.5738 71.8982 69.1045 70.9382C68.6565 69.9782 68.4325 68.9648 68.4325 67.8982C68.4325 66.5328 68.7845 65.3488 69.4885 64.3462C70.1925 63.3222 71.0992 62.5435 72.2085 62.0102C73.3178 61.4555 74.4485 61.1782 75.6005 61.1782C76.5605 61.1782 77.4352 61.3808 78.2245 61.7862C79.0138 62.1702 79.4085 62.6608 79.4085 63.2582C79.4085 63.5782 79.2912 63.8555 79.0565 64.0902C78.8218 64.3248 78.5018 64.4422 78.0965 64.4422C77.4138 64.4422 76.8805 64.0262 76.4965 63.1942C76.2618 62.7035 76.0058 62.3515 75.7285 62.1382C75.4512 61.9248 75.0352 61.8182 74.4805 61.8182C73.3712 61.8182 72.4965 62.2875 71.8565 63.2262C71.2165 64.1435 70.8965 65.3702 70.8965 66.9062C70.8965 68.6768 71.3232 70.1275 72.1765 71.2582C73.0512 72.3888 74.3738 72.9542 76.1445 72.9542C77.3178 72.9542 78.3845 72.6235 79.3445 71.9622H79.4085C79.4725 71.9622 79.5258 71.9942 79.5685 72.0582C79.6325 72.1222 79.6325 72.1755 79.5685 72.2182C78.8218 72.9008 78.0645 73.4022 77.2965 73.7222C76.5285 74.0422 75.6752 74.2022 74.7365 74.2022ZM86.9618 54.4582C85.6391 54.4582 84.6044 54.8315 83.8578 55.5782C83.1111 56.3035 82.5564 57.4768 82.1938 59.0982C82.1724 59.1408 82.0978 59.1622 81.9698 59.1622C81.8631 59.1622 81.8098 59.1302 81.8098 59.0662C81.8951 58.4688 81.9911 57.4982 82.0978 56.1542C82.2044 54.8102 82.2578 53.7968 82.2578 53.1142C82.2578 53.0075 82.3218 52.9542 82.4498 52.9542C82.5778 52.9542 82.6418 53.0075 82.6418 53.1142C82.6418 53.5835 83.2284 53.8182 84.4018 53.8182C86.2364 53.8822 88.3804 53.9142 90.8338 53.9142C92.0924 53.9142 93.4258 53.8928 94.8338 53.8502L97.0098 53.8182C97.7991 53.8182 98.3751 53.7648 98.7378 53.6582C99.1004 53.5515 99.3351 53.3382 99.4418 53.0182C99.4631 52.9328 99.5271 52.8902 99.6338 52.8902C99.7618 52.8902 99.8258 52.9328 99.8258 53.0182C99.7618 53.6155 99.6871 54.5755 99.6018 55.8982C99.5378 57.2208 99.5058 58.2768 99.5058 59.0662C99.5058 59.1302 99.4418 59.1622 99.3138 59.1622C99.2071 59.1622 99.1538 59.1302 99.1538 59.0662C99.0044 57.4235 98.5778 56.2502 97.8738 55.5462C97.1698 54.8208 96.1244 54.4582 94.7378 54.4582C93.9484 54.4582 93.3831 54.5115 93.0418 54.6182C92.7004 54.7035 92.4658 54.8848 92.3378 55.1622C92.2098 55.4182 92.1458 55.8555 92.1458 56.4742V71.2262C92.1458 71.8875 92.2098 72.3675 92.3378 72.6662C92.4871 72.9648 92.7644 73.1675 93.1698 73.2742C93.5751 73.3808 94.2258 73.4342 95.1218 73.4342C95.1644 73.4342 95.1858 73.4982 95.1858 73.6262C95.1858 73.7542 95.1644 73.8182 95.1218 73.8182C94.3751 73.8182 93.7884 73.8075 93.3618 73.7862L90.8338 73.7542L88.3698 73.7862C87.9431 73.8075 87.3458 73.8182 86.5778 73.8182C86.5138 73.8182 86.4818 73.7542 86.4818 73.6262C86.4818 73.4982 86.5138 73.4342 86.5778 73.4342C87.4524 73.4342 88.0924 73.3808 88.4978 73.2742C88.9244 73.1675 89.2124 72.9648 89.3618 72.6662C89.5111 72.3462 89.5858 71.8662 89.5858 71.2262V56.4102C89.5858 55.8128 89.5218 55.3862 89.3938 55.1302C89.2658 54.8528 89.0204 54.6715 88.6578 54.5862C88.3164 54.5008 87.7511 54.4582 86.9618 54.4582ZM105.8 74.2342C104.541 74.2342 103.432 73.9355 102.472 73.3382C101.512 72.7195 100.765 71.8982 100.232 70.8742C99.7198 69.8288 99.4638 68.6982 99.4638 67.4822C99.4638 66.0955 99.8051 64.9222 100.488 63.9622C101.17 62.9808 102.045 62.2555 103.112 61.7862C104.178 61.2955 105.266 61.0502 106.376 61.0502C107.634 61.0502 108.744 61.3595 109.704 61.9782C110.664 62.5968 111.4 63.4182 111.912 64.4422C112.424 65.4448 112.68 66.5115 112.68 67.6422C112.68 68.9435 112.36 70.0955 111.72 71.0982C111.101 72.1008 110.269 72.8795 109.224 73.4342C108.178 73.9675 107.037 74.2342 105.8 74.2342ZM106.728 73.6262C107.794 73.6262 108.616 73.2102 109.192 72.3782C109.768 71.5462 110.056 70.2875 110.056 68.6022C110.056 67.2155 109.842 65.9995 109.416 64.9542C109.01 63.9088 108.445 63.1088 107.72 62.5542C106.994 61.9782 106.184 61.6902 105.288 61.6902C104.242 61.6902 103.432 62.0955 102.856 62.9062C102.301 63.6955 102.024 64.8688 102.024 66.4262C102.024 67.7702 102.226 68.9968 102.632 70.1062C103.037 71.1942 103.592 72.0582 104.296 72.6982C105.021 73.3168 105.832 73.6262 106.728 73.6262ZM114.549 73.8182C114.507 73.8182 114.485 73.7542 114.485 73.6262C114.485 73.4982 114.507 73.4342 114.549 73.4342C115.339 73.4342 115.851 73.2955 116.085 73.0182C116.341 72.7195 116.469 72.1222 116.469 71.2262V54.7782C116.469 54.0102 116.395 53.4662 116.245 53.1462C116.117 52.8048 115.872 52.6342 115.509 52.6342C115.147 52.6342 114.677 52.7728 114.101 53.0502H114.069C113.984 53.0502 113.92 52.9968 113.877 52.8902C113.835 52.7835 113.845 52.7088 113.909 52.6662L118.133 50.6502L118.293 50.6182C118.379 50.6182 118.453 50.6502 118.517 50.7142C118.603 50.7782 118.645 50.8528 118.645 50.9382V71.2262C118.645 72.1222 118.773 72.7195 119.029 73.0182C119.285 73.2955 119.808 73.4342 120.597 73.4342C120.661 73.4342 120.693 73.4982 120.693 73.6262C120.693 73.7542 120.661 73.8182 120.597 73.8182C120.064 73.8182 119.648 73.8075 119.349 73.7862L117.589 73.7542L115.765 73.7862C115.467 73.8075 115.061 73.8182 114.549 73.8182ZM122.613 73.8182C122.549 73.8182 122.517 73.7542 122.517 73.6262C122.517 73.4982 122.549 73.4342 122.613 73.4342C123.595 73.4342 124.085 73.2208 124.085 72.7942C124.085 72.6022 123.989 72.3782 123.797 72.1222L119.797 66.7782L121.493 65.4982L125.749 71.2262C126.325 72.0155 126.912 72.5808 127.509 72.9222C128.107 73.2635 128.736 73.4342 129.397 73.4342C129.44 73.4342 129.461 73.4982 129.461 73.6262C129.461 73.7542 129.44 73.8182 129.397 73.8182C128.864 73.8182 128.448 73.8075 128.149 73.7862L126.357 73.7542L124.021 73.7862C123.68 73.8075 123.211 73.8182 122.613 73.8182ZM117.749 68.2502L122.549 64.1542C123.189 63.5995 123.509 63.1195 123.509 62.7142C123.509 62.4582 123.36 62.2555 123.061 62.1062C122.784 61.9355 122.379 61.8502 121.845 61.8502C121.803 61.8502 121.781 61.7862 121.781 61.6582C121.781 61.5302 121.803 61.4662 121.845 61.4662C122.443 61.4662 122.912 61.4768 123.253 61.4982L125.621 61.5302L127.797 61.4982C128.096 61.4768 128.501 61.4662 129.013 61.4662C129.056 61.4662 129.077 61.5302 129.077 61.6582C129.077 61.7862 129.056 61.8502 129.013 61.8502C128.181 61.8502 127.243 62.0528 126.197 62.4582C125.173 62.8635 124.181 63.4715 123.221 64.2822L117.909 68.6342L117.749 68.2502ZM135.42 74.1062C134.332 74.1062 133.468 73.7648 132.828 73.0822C132.209 72.3782 131.9 71.4075 131.9 70.1702V65.3062C131.9 64.5168 131.825 63.9408 131.676 63.5782C131.527 63.2155 131.281 63.0342 130.94 63.0342C130.705 63.0342 130.375 63.1302 129.948 63.3222H129.884C129.82 63.3222 129.767 63.2688 129.724 63.1622C129.703 63.0555 129.724 62.9915 129.788 62.9702L133.564 61.2102L133.692 61.1782C133.756 61.1782 133.831 61.2102 133.916 61.2742C134.023 61.3382 134.076 61.4128 134.076 61.4982V68.9542C134.076 70.1915 134.289 71.1088 134.716 71.7062C135.164 72.2822 135.836 72.5702 136.732 72.5702C137.479 72.5702 138.236 72.3568 139.004 71.9302C139.772 71.4822 140.423 70.8848 140.956 70.1382L141.116 70.4902C139.324 72.9008 137.425 74.1062 135.42 74.1062ZM142.524 70.2982C142.524 71.0235 142.599 71.5462 142.748 71.8662C142.919 72.1862 143.196 72.3462 143.58 72.3462C143.9 72.3462 144.423 72.1968 145.148 71.8982H145.18C145.265 71.8982 145.329 71.9515 145.372 72.0582C145.415 72.1435 145.404 72.2075 145.34 72.2502L141.372 74.1382L141.244 74.1702C141.031 74.1702 140.828 73.9142 140.636 73.4022C140.444 72.8902 140.348 72.2182 140.348 71.3862V65.3062C140.348 64.5168 140.273 63.9408 140.124 63.5782C139.975 63.2155 139.729 63.0342 139.388 63.0342C139.153 63.0342 138.812 63.1302 138.364 63.3222H138.3C138.236 63.3222 138.193 63.2688 138.172 63.1622C138.151 63.0555 138.172 62.9915 138.236 62.9702L142.012 61.2102L142.14 61.1782C142.225 61.1782 142.311 61.2102 142.396 61.2742C142.481 61.3382 142.524 61.4128 142.524 61.4982V70.2982ZM155.39 73.8182C155.326 73.8182 155.294 73.7542 155.294 73.6262C155.294 73.4982 155.326 73.4342 155.39 73.4342C155.924 73.4342 156.318 73.3808 156.574 73.2742C156.852 73.1462 157.033 72.9328 157.118 72.6342C157.225 72.3142 157.278 71.8448 157.278 71.2262V66.2022C157.278 64.9648 157.054 64.0582 156.606 63.4822C156.158 62.9062 155.444 62.6182 154.462 62.6182C153.716 62.6182 152.958 62.8422 152.19 63.2902C151.444 63.7382 150.804 64.3355 150.27 65.0822L150.142 64.6982C151.934 62.2662 153.812 61.0502 155.774 61.0502C156.948 61.0502 157.854 61.4022 158.494 62.1062C159.156 62.7888 159.486 63.7488 159.486 64.9862V71.2262C159.486 71.8448 159.529 72.3142 159.614 72.6342C159.721 72.9328 159.902 73.1462 160.158 73.2742C160.436 73.3808 160.852 73.4342 161.406 73.4342C161.47 73.4342 161.502 73.4982 161.502 73.6262C161.502 73.7542 161.47 73.8182 161.406 73.8182C160.894 73.8182 160.478 73.8075 160.158 73.7862L158.398 73.7542L156.638 73.7862C156.318 73.8075 155.902 73.8182 155.39 73.8182ZM146.782 73.8182C146.718 73.8182 146.686 73.7542 146.686 73.6262C146.686 73.4982 146.718 73.4342 146.782 73.4342C147.316 73.4342 147.71 73.3808 147.966 73.2742C148.244 73.1462 148.425 72.9328 148.51 72.6342C148.617 72.3142 148.67 71.8448 148.67 71.2262V64.9862C148.67 64.2822 148.585 63.7808 148.414 63.4822C148.265 63.1622 147.998 63.0022 147.614 63.0022C147.252 63.0022 146.686 63.1515 145.918 63.4502H145.854C145.79 63.4502 145.737 63.3968 145.694 63.2902C145.673 63.1835 145.694 63.1195 145.758 63.0982L149.694 61.2102L149.886 61.1782C150.1 61.1782 150.313 61.4342 150.526 61.9462C150.761 62.4368 150.878 63.0875 150.878 63.8982V71.2262C150.878 71.8448 150.921 72.3142 151.006 72.6342C151.113 72.9328 151.294 73.1462 151.55 73.2742C151.828 73.3808 152.244 73.4342 152.798 73.4342C152.862 73.4342 152.894 73.4982 152.894 73.6262C152.894 73.7542 152.862 73.8182 152.798 73.8182C152.286 73.8182 151.87 73.8075 151.55 73.7862L149.79 73.7542L147.998 73.7862C147.7 73.8075 147.294 73.8182 146.782 73.8182ZM170.287 74.2342C168.431 74.2342 166.799 73.6262 165.391 72.4102L167.087 69.2742C167.087 70.2768 167.311 71.1088 167.759 71.7702C168.207 72.4102 168.741 72.8795 169.359 73.1782C169.999 73.4768 170.618 73.6262 171.215 73.6262C172.346 73.6262 173.221 73.1462 173.839 72.1862C174.479 71.2262 174.799 69.8715 174.799 68.1222C174.799 66.2235 174.437 64.7835 173.711 63.8022C173.007 62.7995 172.069 62.2982 170.895 62.2982C170.149 62.2982 169.434 62.5008 168.751 62.9062C168.069 63.3115 167.375 63.8662 166.671 64.5702L166.415 64.3462C167.311 63.3435 168.186 62.5435 169.039 61.9462C169.914 61.3488 170.927 61.0502 172.079 61.0502C173.018 61.0502 173.882 61.2742 174.671 61.7222C175.461 62.1702 176.09 62.8422 176.559 63.7382C177.029 64.6128 177.263 65.6902 177.263 66.9702C177.263 68.5275 176.933 69.8502 176.271 70.9382C175.61 72.0262 174.746 72.8475 173.679 73.4022C172.613 73.9568 171.482 74.2342 170.287 74.2342ZM163.215 73.9782C163.13 73.9782 163.077 73.9355 163.055 73.8502C163.055 73.7862 163.087 73.7328 163.151 73.6902C163.77 73.2635 164.218 72.8262 164.495 72.3782C164.773 71.9302 164.911 71.3115 164.911 70.5222V54.7782C164.911 54.0315 164.837 53.4875 164.687 53.1462C164.538 52.8048 164.271 52.6342 163.887 52.6342C163.589 52.6342 163.13 52.7728 162.511 53.0502H162.479C162.394 53.0502 162.33 52.9968 162.287 52.8902C162.245 52.7622 162.266 52.6875 162.351 52.6662L166.543 50.6502L166.703 50.6182C166.789 50.6182 166.874 50.6502 166.959 50.7142C167.045 50.7782 167.087 50.8528 167.087 50.9382V72.2502L163.279 73.9782H163.215ZM185.862 74.2342C184.604 74.2342 183.494 73.9355 182.534 73.3382C181.574 72.7195 180.828 71.8982 180.294 70.8742C179.782 69.8288 179.526 68.6982 179.526 67.4822C179.526 66.0955 179.868 64.9222 180.55 63.9622C181.233 62.9808 182.108 62.2555 183.174 61.7862C184.241 61.2955 185.329 61.0502 186.438 61.0502C187.697 61.0502 188.806 61.3595 189.766 61.9782C190.726 62.5968 191.462 63.4182 191.974 64.4422C192.486 65.4448 192.742 66.5115 192.742 67.6422C192.742 68.9435 192.422 70.0955 191.782 71.0982C191.164 72.1008 190.332 72.8795 189.286 73.4342C188.241 73.9675 187.1 74.2342 185.862 74.2342ZM186.79 73.6262C187.857 73.6262 188.678 73.2102 189.254 72.3782C189.83 71.5462 190.118 70.2875 190.118 68.6022C190.118 67.2155 189.905 65.9995 189.478 64.9542C189.073 63.9088 188.508 63.1088 187.782 62.5542C187.057 61.9782 186.246 61.6902 185.35 61.6902C184.305 61.6902 183.494 62.0955 182.918 62.9062C182.364 63.6955 182.086 64.8688 182.086 66.4262C182.086 67.7702 182.289 68.9968 182.694 70.1062C183.1 71.1942 183.654 72.0582 184.358 72.6982C185.084 73.3168 185.894 73.6262 186.79 73.6262ZM197.076 74.1702C196.606 74.1702 196.222 74.0315 195.924 73.7542C195.646 73.4555 195.508 73.0715 195.508 72.6022C195.508 72.1542 195.646 71.8022 195.924 71.5462C196.222 71.2688 196.606 71.1302 197.076 71.1302C197.566 71.1302 197.94 71.2688 198.196 71.5462C198.473 71.8022 198.612 72.1542 198.612 72.6022C198.612 73.0928 198.473 73.4768 198.196 73.7542C197.94 74.0315 197.566 74.1702 197.076 74.1702ZM207.674 74.2022C206.287 74.2022 205.114 73.9035 204.154 73.3062C203.215 72.6875 202.511 71.8982 202.042 70.9382C201.594 69.9782 201.37 68.9648 201.37 67.8982C201.37 66.5328 201.722 65.3488 202.426 64.3462C203.13 63.3222 204.037 62.5435 205.146 62.0102C206.255 61.4555 207.386 61.1782 208.538 61.1782C209.498 61.1782 210.373 61.3808 211.162 61.7862C211.951 62.1702 212.346 62.6608 212.346 63.2582C212.346 63.5782 212.229 63.8555 211.994 64.0902C211.759 64.3248 211.439 64.4422 211.034 64.4422C210.351 64.4422 209.818 64.0262 209.434 63.1942C209.199 62.7035 208.943 62.3515 208.666 62.1382C208.389 61.9248 207.973 61.8182 207.418 61.8182C206.309 61.8182 205.434 62.2875 204.794 63.2262C204.154 64.1435 203.834 65.3702 203.834 66.9062C203.834 68.6768 204.261 70.1275 205.114 71.2582C205.989 72.3888 207.311 72.9542 209.082 72.9542C210.255 72.9542 211.322 72.6235 212.282 71.9622H212.346C212.41 71.9622 212.463 71.9942 212.506 72.0582C212.57 72.1222 212.57 72.1755 212.506 72.2182C211.759 72.9008 211.002 73.4022 210.234 73.7222C209.466 74.0422 208.613 74.2022 207.674 74.2022ZM220.8 74.2342C219.541 74.2342 218.432 73.9355 217.472 73.3382C216.512 72.7195 215.765 71.8982 215.232 70.8742C214.72 69.8288 214.464 68.6982 214.464 67.4822C214.464 66.0955 214.805 64.9222 215.488 63.9622C216.17 62.9808 217.045 62.2555 218.112 61.7862C219.178 61.2955 220.266 61.0502 221.376 61.0502C222.634 61.0502 223.744 61.3595 224.704 61.9782C225.664 62.5968 226.4 63.4182 226.912 64.4422C227.424 65.4448 227.68 66.5115 227.68 67.6422C227.68 68.9435 227.36 70.0955 226.72 71.0982C226.101 72.1008 225.269 72.8795 224.224 73.4342C223.178 73.9675 222.037 74.2342 220.8 74.2342ZM221.728 73.6262C222.794 73.6262 223.616 73.2102 224.192 72.3782C224.768 71.5462 225.056 70.2875 225.056 68.6022C225.056 67.2155 224.842 65.9995 224.416 64.9542C224.01 63.9088 223.445 63.1088 222.72 62.5542C221.994 61.9782 221.184 61.6902 220.288 61.6902C219.242 61.6902 218.432 62.0955 217.856 62.9062C217.301 63.6955 217.024 64.8688 217.024 66.4262C217.024 67.7702 217.226 68.9968 217.632 70.1062C218.037 71.1942 218.592 72.0582 219.296 72.6982C220.021 73.3168 220.832 73.6262 221.728 73.6262ZM246.669 73.8182C246.627 73.8182 246.605 73.7542 246.605 73.6262C246.605 73.4982 246.627 73.4342 246.669 73.4342C247.459 73.4342 247.981 73.2955 248.237 73.0182C248.493 72.7195 248.621 72.1222 248.621 71.2262V66.2982C248.621 65.0608 248.408 64.1435 247.981 63.5462C247.555 62.9488 246.883 62.6502 245.965 62.6502C245.261 62.6502 244.536 62.8742 243.789 63.3222C243.064 63.7702 242.445 64.3675 241.933 65.1142L241.805 64.7302C242.68 63.5142 243.555 62.6075 244.429 62.0102C245.325 61.4128 246.275 61.1142 247.277 61.1142C248.408 61.1142 249.272 61.4448 249.869 62.1062C250.467 62.7675 250.765 63.7488 250.765 65.0502V71.2262C250.765 72.1222 250.883 72.7195 251.117 73.0182C251.373 73.2955 251.896 73.4342 252.685 73.4342C252.771 73.4342 252.813 73.4982 252.813 73.6262C252.813 73.7542 252.771 73.8182 252.685 73.8182C252.173 73.8182 251.768 73.8075 251.469 73.7862L249.677 73.7542L247.917 73.7862C247.597 73.8075 247.181 73.8182 246.669 73.8182ZM238.381 73.8182C238.317 73.8182 238.285 73.7542 238.285 73.6262C238.285 73.4982 238.317 73.4342 238.381 73.4342C239.171 73.4342 239.683 73.2955 239.917 73.0182C240.173 72.7195 240.301 72.1222 240.301 71.2262V66.2982C240.301 65.0608 240.088 64.1435 239.661 63.5462C239.235 62.9488 238.573 62.6502 237.677 62.6502C236.952 62.6502 236.227 62.8742 235.501 63.3222C234.776 63.7702 234.157 64.3675 233.645 65.1142L233.517 64.7302C235.224 62.3195 237.037 61.1142 238.957 61.1142C240.067 61.1142 240.931 61.4342 241.549 62.0742C242.168 62.7142 242.477 63.6528 242.477 64.8902V71.2262C242.477 72.1222 242.595 72.7195 242.829 73.0182C243.085 73.2955 243.608 73.4342 244.397 73.4342C244.461 73.4342 244.493 73.4982 244.493 73.6262C244.493 73.7542 244.461 73.8182 244.397 73.8182C243.885 73.8182 243.469 73.8075 243.149 73.7862L241.389 73.7542L239.629 73.7862C239.309 73.8075 238.893 73.8182 238.381 73.8182ZM230.157 73.8182C230.093 73.8182 230.061 73.7542 230.061 73.6262C230.061 73.4982 230.093 73.4342 230.157 73.4342C230.691 73.4342 231.085 73.3808 231.341 73.2742C231.619 73.1462 231.8 72.9328 231.885 72.6342C231.992 72.3142 232.045 71.8448 232.045 71.2262V64.9862C232.045 64.2822 231.96 63.7808 231.789 63.4822C231.64 63.1622 231.373 63.0022 230.989 63.0022C230.627 63.0022 230.061 63.1515 229.293 63.4502H229.229C229.165 63.4502 229.112 63.3968 229.069 63.2902C229.048 63.1835 229.069 63.1195 229.133 63.0982L233.069 61.2102L233.261 61.1782C233.475 61.1782 233.688 61.4342 233.901 61.9462C234.136 62.4368 234.253 63.0875 234.253 63.8982V71.2262C234.253 71.8448 234.296 72.3142 234.381 72.6342C234.488 72.9328 234.669 73.1462 234.925 73.2742C235.203 73.3808 235.619 73.4342 236.173 73.4342C236.237 73.4342 236.269 73.4982 236.269 73.6262C236.269 73.7542 236.237 73.8182 236.173 73.8182C235.661 73.8182 235.245 73.8075 234.925 73.7862L233.165 73.7542L231.373 73.7862C231.075 73.8075 230.669 73.8182 230.157 73.8182Z" fill="white"/>
<defs>
<clipPath id="clip0_8_32">
<path d="M233 13C233 12.4477 232.552 12 232 12H34C33.4477 12 33 12.4477 33 13V42.8182C33 43.3705 33.4477 43.8182 34 43.8182H232C232.552 43.8182 233 43.3705 233 42.8182V13Z" fill="white"/>
</clipPath>
</defs>
</svg>
